<svg width="24" height="24" viewBox="0 0 24 24" fill="none" xmlns="http://www.w3.org/2000/svg">
    <path d="M5.42182 13.3589C2.4715 13.3589 0.0795898 15.7404 0.0795898 18.6778V23.9968H10.7663V18.6778C10.7641 15.7404 8.37214 13.3589 5.42182 13.3589Z"
          fill="#005c29"/>
    <path d="M13.3163 18.6832C13.3163 21.6207 15.7083 24 18.6564 24H23.9964V13.3643H18.6586C15.7083 13.3643 13.3163 15.7457 13.3163 18.6832Z"
          fill="#005c29"/>
    <path d="M13.3199 0V5.31676C13.3199 8.25422 15.7119 10.6335 18.66 10.6335C21.6081 10.6335 24 8.25203 24 5.31676V0H13.3199Z"
          fill="#005c29"/>
    <path d="M5.35103 0.00671387H0V10.6424H5.35103C8.29475 10.6424 10.6823 8.26531 10.6823 5.33442V5.31472C10.6823 2.38382 8.29475 0.00671387 5.35103 0.00671387Z"
          fill="#005c29"/>
</svg>
